<svg width="75" height="75" xmlns="http://www.w3.org/2000/svg" xmlns:xlink="http://www.w3.org/1999/xlink"><defs><symbol id="svg_121" viewBox="0 96 960 960" xmlns="http://www.w3.org/2000/svg"><path d="m385 793-86-182-181-86 181-86 86-182 87 182 179 86-180 86-86 182zm330 103-43-86-85-43 85-43 44-85 42 85 85 43-85 43-43 86z"/></symbol></defs><g class="layer" stroke="#000" stroke-opacity="0"><path fill="#1818e2" id="svg_3" d="M7.38 10.42h6v6h-6z"/><path fill="#1818e2" id="svg_5" d="M7.37 16.18h6v6h-6z"/><path fill="#1818e2" id="svg_6" d="M13.02 16.15h6v6h-6z"/><path fill="#1818e2" id="svg_8" d="M18.79 21.87h6.49v6h-6.49z"/><path fill="#1818e2" id="svg_9" d="M13.02 21.87h6v6h-6z"/><path fill="#1818e2" id="svg_13" d="M18.47 27.67h6.85v6h-6.85z"/><path fill="#1818e2" id="svg_10" d="M18.35 33.38h6.98v6h-6.98z"/><path fill="#1818e2" id="svg_17" d="M25.25 34.46h6v6h-6z"/><path fill="#1818e2" id="svg_16" d="M31.15 34.46h6v6h-6z"/><path fill="#1818e2" id="svg_15" d="M31.15 39.49h6v6h-6z"/><path fill="#1818e2" id="svg_14" d="M25.25 39.49h6v6h-6z"/><path fill="#1818e2" id="svg_21" d="M36.95 38.15h6v6h-6z"/><path fill="#1818e2" id="svg_20" d="M42.84 38.15h6v6h-6z"/><path fill="#1818e2" id="svg_19" d="M42.84 43.86h6v6h-6z"/><path fill="#1818e2" id="svg_18" d="M37.11 43.86h6v6h-6z"/><path fill="#1818e2" id="svg_22" d="M60.55 20.85h6v6h-6z"/><path fill="#1818e2" id="svg_24" d="M48.76 38.17h6v6h-6z"/><path fill="#1818e2" id="svg_25" d="M43.02 32.47h6v6h-6z"/><path fill="#1818e2" id="svg_26" d="M25.27 45.4h6v6h-6z"/><path fill="#1818e2" id="svg_31" d="M48.75 32.44h6v6h-6z"/><path fill="#1818e2" id="svg_30" d="M54.67 32.42h6v6h-6z"/><path fill="#1818e2" id="svg_28" d="M60.56 37.99h6v6h-6z"/><path fill="#1818e2" id="svg_27" d="M54.67 38.13h6v6h-6z"/><path fill="#1818e2" id="svg_33" d="M54.65 26.69h6v6h-6z"/><path fill="#1818e2" id="svg_35" d="M54.65 20.84h6v6h-6z"/><path fill="#1818e2" id="svg_37" d="M60.54 14.98h6v6h-6z"/><path fill="#1818e2" id="svg_38" d="M66.32 14.98h6v6h-6z"/><path fill="#c62bc6" id="svg_42" d="M7.34 21.93h6v6h-6z"/><path fill="#c62bc6" id="svg_43" d="M12.51 27.79h6v6h-6z"/><path fill="#c62bc6" id="svg_44" d="M7.34 27.79h6v6h-6z"/><path fill="#c62bc6" id="svg_45" d="M12.51 33.5h6v6h-6z"/><path fill="#c62bc6" id="svg_46" d="M12.51 39.28h6v6h-6z"/><path fill="#c62bc6" id="svg_47" d="M19.31 39.28h6v6h-6z"/><path fill="#c62bc6" id="svg_48" d="M15.36 39.28h6v6h-6z"/><path fill="#c62bc6" id="svg_49" d="M7.34 39.28h6v6h-6z"/><path fill="#c62bc6" id="svg_50" d="M31.14 45.4h6v6h-6z"/><path fill="#c62bc6" id="svg_51" d="M60.53 32.14h6v6h-6z"/><path fill="#c62bc6" id="svg_52" d="M66.38 32.14h6v6h-6z"/><path fill="#c62bc6" id="svg_53" d="M54.67 43.91h6v6h-6z"/><path fill="#c62bc6" id="svg_54" d="M66.3 20.85h6v6h-6z"/><path fill="#c62bc6" id="svg_55" d="M19.3 44.52h6v6h-6z"/><path fill="#c62bc6" id="svg_56" d="M19.3 45.4h6v6h-6z"/><path fill="#c62bc6" id="svg_57" d="M42.84 49.76h6.07v6h-6.07z"/><path fill="#82ba4a" id="svg_58" d="M13.31 45.27h6v6h-6z"/><path fill="#82ba4a" id="svg_60" d="M13.31 50.51h6v6h-6z"/><path fill="#82ba4a" id="svg_61" d="M19.23 51.39h6v6h-6z"/><path fill="#82ba4a" id="svg_62" d="M13.31 51.39h6v6h-6z"/><path fill="#82ba4a" id="svg_63" d="M25.15 51.39h6v6h-6z"/><path fill="#82ba4a" id="svg_64" d="M7.32 51.48h6v6h-6z"/><path fill="#82ba4a" id="svg_65" d="M7.34 57.17h6v6h-6z"/><path fill="#82ba4a" id="svg_66" d="M48.85 43.91h6v6h-6z"/><path fill="#82ba4a" id="svg_67" d="M48.85 49.76h6v6h-6z"/><path fill="#82ba4a" id="svg_68" d="M48.78 55.68h6v6h-6z"/><path fill="#82ba4a" id="svg_69" d="M54.64 55.68h6v6h-6z"/><path fill="#82ba4a" id="svg_70" d="M66.47 38.06h6v6h-6z"/><path fill="#82ba4a" id="svg_71" d="M66.47 43.98h6v6h-6z"/><path fill="#82ba4a" id="svg_72" d="M37.15 49.83h6v6h-6z"/><path fill="#82ba4a" id="svg_73" d="M31.1 51.39h6v6h-6z"/><path fill="#82ba4a" id="svg_76" d="M37.08 49.76h6v6h-6z"/><path fill="#82ba4a" id="svg_75" d="M37.08 55.47h6v6h-6z"/><path fill="#82ba4a" id="svg_74" d="M37.08 61.39h6v6h-6z"/><path fill="#82ba4a" id="svg_77" d="M42.87 55.68h6v6h-6z"/><path fill="#1818e2" id="svg_79" d="M1.99 10.43h6v6h-6z"/><path fill="#1818e2" id="svg_80" d="M66.35 9.5h6v6h-6z"/><path fill="#82ba4a" id="svg_88" d="M13.53 56.42h6v6h-6z"/><path fill="#82ba4a" id="svg_86" d="M13.53 57.31h6v6h-6z"/><path fill="#82ba4a" id="svg_85" d="M25.36 57.31h6v6h-6z"/><path fill="#82ba4a" id="svg_84" d="M7.54 57.31h6v6h-6z"/><path fill="#82ba4a" id="svg_83" d="M7.35 63.16h6v6h-6z"/><path fill="#82ba4a" id="svg_97" d="M66.45 49.89h6v6h-6z"/><path fill="#1818e2" id="svg_102" d="M60.25 26.18h6v6h-6z"/><path fill="#82ba4a" id="svg_103" d="M54.67 61.62h6v6h-6z"/><path fill="#82ba4a" id="svg_104" d="M60.66 49.85h6v6h-6z"/><path fill="#82ba4a" id="svg_105" d="M66.42 55.82h6v6h-6z"/><path fill="#82ba4a" id="svg_108" d="M1.29 45.26h6v6.27h-6z"/><path fill="#1818e2" id="svg_109" d="M43.01 26.71h6v6h-6z"/><path fill="#c62bc6" id="svg_111" d="M54.85 49.85h5.8v6h-5.8z"/><path fill="#c62bc6" id="svg_112" d="M60.5 43.95h6v6h-6z"/><path fill="#c62bc6" id="svg_115" d="M1.4 21.92h6v6h-6z"/><use fill="#fff" id="svg_122" stroke-width="20" transform="matrix(.48504 0 0 .45433 3.058 -1.187)" x="54.89" xlink:href="#svg_121" y="10.49"/><use fill="#fff" id="svg_123" stroke-width="20" transform="matrix(-.48504 -.00259 .00242 -.45433 92.173 41.13)" x="86.9" xlink:href="#svg_121" y="36.14"/><use fill="#fff" id="svg_124" stroke-width="20" transform="rotate(-179.77 21.796 12.709) scale(.48504 .45434)" x="37.8" xlink:href="#svg_121" y="19.12"/><use fill="#fff" id="svg_125" stroke-width="20" transform="matrix(.48504 0 0 .45433 -2.786 -1.057)" x="125.35" xlink:href="#svg_121" y="3.27"/></g></svg>