<svg xmlns="http://www.w3.org/2000/svg" xmlns:xlink="http://www.w3.org/1999/xlink" width="350" height="350"><svg xmlns="http://www.w3.org/2000/svg" xmlns:svg="http://www.w3.org/2000/svg" xmlns:xlink="http://www.w3.org/1999/xlink" width="350" height="350" shape-rendering="crispEdges"><g class="layer" transform="matrix(1.5 0 0 1.5 13 25)"><g id="SvgjsG1011"><path fill="#1818e2" d="M18 18h18v18H18ZM18 36h18v18H18ZM36 36h18v18H36ZM54 54h18v18H54ZM36 54h18v18H36ZM54 72h18v18H54ZM54 90h18v18H54ZM72 90h18v18H72ZM90 90h18v18H90ZM90 108h18v18H90ZM72 108h18v18H72ZM108 108h18v18h-18ZM126 108h18v18h-18ZM126 126h18v18h-18ZM108 126h18v18h-18ZM180 54h18v18h-18ZM144 108h18v18h-18ZM126 90h18v18h-18ZM72 126h18v18H72ZM144 90h18v18h-18ZM162 90h18v18h-18ZM180 108h18v18h-18ZM162 108h18v18h-18ZM162 72h18v18h-18ZM162 54h18v18h-18ZM180 36h18v18h-18ZM198 36h18v18h-18ZM0 18h18v18H0Z"/><path fill="#1818e2" d="M198 36h18v18h-18ZM180 72h18v18h-18ZM126 72h18v18h-18Z"/><path fill="#c62bc6" d="M18 54h18v18H18ZM36 72h18v18H36ZM18 72h18v18H18ZM36 90h18v18H36ZM36 108h18v18H36ZM54 108h18v18H54Z"/><path fill="#c62bc6" d="M36 108h18v18H36ZM90 126h18v18H90ZM180 90h18v18h-18ZM198 90h18v18h-18ZM162 126h18v18h-18ZM198 54h18v18h-18ZM54 126h18v18H54ZM126 144h18v18h-18ZM162 144h18v18h-18ZM180 126h18v18h-18ZM0 54h18v18H0Z"/><path fill="#82ba4a" d="M36 126h18v18H36ZM36 144h18v18H36ZM54 144h18v18H54Z"/><path fill="#82ba4a" d="M36 144h18v18H36ZM72 144h18v18H72ZM18 144h18v18H18ZM18 162h18v18H18ZM144 126h18v18h-18ZM144 144h18v18h-18ZM144 162h18v18h-18ZM162 162h18v18h-18ZM198 108h18v18h-18ZM198 126h18v18h-18ZM108 144h18v18h-18ZM90 144h18v18H90Z"/><path fill="#82ba4a" d="M108 144h18v18h-18ZM108 162h18v18h-18ZM108 180h18v18h-18ZM126 162h18v18h-18ZM36 162h18v18H36ZM72 162h18v18H72ZM18 162h18v18H18ZM18 180h18v18H18ZM198 144h18v18h-18ZM162 180h18v18h-18ZM180 144h18v18h-18ZM198 162h18v18h-18ZM0 126h18v18H0Z"/><use xlink:href="#svg_121" width="20" height="20" x="30" y="1" fill="#fff"/><use xlink:href="#svg_121" width="20" height="20" x="64" y="34" fill="#fff"/><use xlink:href="#svg_121" width="20" height="20" x="85" y="54" fill="#fff"/><use xlink:href="#svg_121" width="20" height="20" x="116" y="34" fill="#fff"/><use xlink:href="#svg_121" width="20" height="20" x="170" y="12" fill="#fff"/></g></g></svg><style>@media (prefers-color-scheme:light){:root{filter:none}}@media (prefers-color-scheme:dark){:root{filter:none}}</style></svg>