<svg xmlns="http://www.w3.org/2000/svg" xmlns:xlink="http://www.w3.org/1999/xlink" width="75" height="75"><defs><symbol xmlns="http://www.w3.org/2000/svg" id="svg_121" viewBox="0 96 960 960"><path d="m385 793-86-182-181-86 181-86 86-182 87 182 179 86-180 86Zm330 103-43-86-85-43 85-43 44-85 42 85 85 43-85 43Z"/></symbol></defs><g stroke="#000" stroke-opacity="0" class="layer"><path id="svg_3" fill="#1818e2" d="M7.38 10.42h6v6h-6Z"/><path id="svg_5" fill="#1818e2" d="M7.37 16.18h6v6h-6Z"/><path id="svg_6" fill="#1818e2" d="M13.02 16.15h6v6h-6Z"/><path id="svg_8" fill="#1818e2" d="M18.79 21.87h6.49v6h-6.49Z"/><path id="svg_9" fill="#1818e2" d="M13.02 21.87h6v6h-6Z"/><path id="svg_13" fill="#1818e2" d="M18.47 27.67h6.85v6h-6.85Z"/><path id="svg_10" fill="#1818e2" d="M18.35 33.38h6.98v6h-6.98Z"/><path id="svg_17" fill="#1818e2" d="M25.25 34.46h6v6h-6Z"/><path id="svg_16" fill="#1818e2" d="M31.15 34.46h6v6h-6Z"/><path id="svg_15" fill="#1818e2" d="M31.15 39.49h6v6h-6Z"/><path id="svg_14" fill="#1818e2" d="M25.25 39.49h6v6h-6Z"/><path id="svg_21" fill="#1818e2" d="M36.95 38.15h6v6h-6Z"/><path id="svg_20" fill="#1818e2" d="M42.84 38.15h6v6h-6Z"/><path id="svg_19" fill="#1818e2" d="M42.84 43.86h6v6h-6Z"/><path id="svg_18" fill="#1818e2" d="M37.11 43.86h6v6h-6Z"/><path id="svg_22" fill="#1818e2" d="M60.55 20.85h6v6h-6Z"/><path id="svg_24" fill="#1818e2" d="M48.76 38.17h6v6h-6Z"/><path id="svg_25" fill="#1818e2" d="M43.02 32.47h6v6h-6Z"/><path id="svg_26" fill="#1818e2" d="M25.27 45.4h6v6h-6Z"/><path id="svg_31" fill="#1818e2" d="M48.75 32.44h6v6h-6Z"/><path id="svg_30" fill="#1818e2" d="M54.67 32.42h6v6h-6Z"/><path id="svg_28" fill="#1818e2" d="M60.56 37.99h6v6h-6Z"/><path id="svg_27" fill="#1818e2" d="M54.67 38.13h6v6h-6Z"/><path id="svg_33" fill="#1818e2" d="M54.65 26.69h6v6h-6Z"/><path id="svg_35" fill="#1818e2" d="M54.65 20.84h6v6h-6Z"/><path id="svg_37" fill="#1818e2" d="M60.54 14.98h6v6h-6Z"/><path id="svg_38" fill="#1818e2" d="M66.32 14.98h6v6h-6Z"/><path id="svg_42" fill="#c62bc6" d="M7.34 21.93h6v6h-6Z"/><path id="svg_43" fill="#c62bc6" d="M12.51 27.79h6v6h-6Z"/><path id="svg_44" fill="#c62bc6" d="M7.34 27.79h6v6h-6Z"/><path id="svg_45" fill="#c62bc6" d="M12.51 33.5h6v6h-6Z"/><path id="svg_46" fill="#c62bc6" d="M12.51 39.28h6v6h-6Z"/><path id="svg_47" fill="#c62bc6" d="M19.31 39.28h6v6h-6Z"/><path id="svg_48" fill="#c62bc6" d="M15.36 39.28h6v6h-6Z"/><path id="svg_49" fill="#c62bc6" d="M7.34 39.28h6v6h-6Z"/><path id="svg_50" fill="#c62bc6" d="M31.14 45.4h6v6h-6Z"/><path id="svg_51" fill="#c62bc6" d="M60.53 32.14h6v6h-6Z"/><path id="svg_52" fill="#c62bc6" d="M66.38 32.14h6v6h-6Z"/><path id="svg_53" fill="#c62bc6" d="M54.67 43.91h6v6h-6Z"/><path id="svg_54" fill="#c62bc6" d="M66.3 20.85h6v6h-6Z"/><path id="svg_55" fill="#c62bc6" d="M19.3 44.52h6v6h-6Z"/><path id="svg_56" fill="#c62bc6" d="M19.3 45.4h6v6h-6Z"/><path id="svg_57" fill="#c62bc6" d="M42.84 49.76h6.07v6h-6.07Z"/><path id="svg_58" fill="#82ba4a" d="M13.31 45.27h6v6h-6Z"/><path id="svg_60" fill="#82ba4a" d="M13.31 50.51h6v6h-6Z"/><path id="svg_61" fill="#82ba4a" d="M19.23 51.39h6v6h-6Z"/><path id="svg_62" fill="#82ba4a" d="M13.31 51.39h6v6h-6Z"/><path id="svg_63" fill="#82ba4a" d="M25.15 51.39h6v6h-6Z"/><path id="svg_64" fill="#82ba4a" d="M7.32 51.48h6v6h-6Z"/><path id="svg_65" fill="#82ba4a" d="M7.34 57.17h6v6h-6Z"/><path id="svg_66" fill="#82ba4a" d="M48.85 43.91h6v6h-6Z"/><path id="svg_67" fill="#82ba4a" d="M48.85 49.76h6v6h-6Z"/><path id="svg_68" fill="#82ba4a" d="M48.78 55.68h6v6h-6Z"/><path id="svg_69" fill="#82ba4a" d="M54.64 55.68h6v6h-6Z"/><path id="svg_70" fill="#82ba4a" d="M66.47 38.06h6v6h-6Z"/><path id="svg_71" fill="#82ba4a" d="M66.47 43.98h6v6h-6Z"/><path id="svg_72" fill="#82ba4a" d="M37.15 49.83h6v6h-6Z"/><path id="svg_73" fill="#82ba4a" d="M31.1 51.39h6v6h-6Z"/><path id="svg_76" fill="#82ba4a" d="M37.08 49.76h6v6h-6Z"/><path id="svg_75" fill="#82ba4a" d="M37.08 55.47h6v6h-6Z"/><path id="svg_74" fill="#82ba4a" d="M37.08 61.39h6v6h-6Z"/><path id="svg_77" fill="#82ba4a" d="M42.87 55.68h6v6h-6Z"/><path id="svg_79" fill="#1818e2" d="M1.99 10.43h6v6h-6Z"/><path id="svg_80" fill="#1818e2" d="M66.35 9.5h6v6h-6Z"/><path id="svg_88" fill="#82ba4a" d="M13.53 56.42h6v6h-6Z"/><path id="svg_86" fill="#82ba4a" d="M13.53 57.31h6v6h-6Z"/><path id="svg_85" fill="#82ba4a" d="M25.36 57.31h6v6h-6Z"/><path id="svg_84" fill="#82ba4a" d="M7.54 57.31h6v6h-6Z"/><path id="svg_83" fill="#82ba4a" d="M7.35 63.16h6v6h-6Z"/><path id="svg_97" fill="#82ba4a" d="M66.45 49.89h6v6h-6Z"/><path id="svg_102" fill="#1818e2" d="M60.25 26.18h6v6h-6Z"/><path id="svg_103" fill="#82ba4a" d="M54.67 61.62h6v6h-6Z"/><path id="svg_104" fill="#82ba4a" d="M60.66 49.85h6v6h-6Z"/><path id="svg_105" fill="#82ba4a" d="M66.42 55.82h6v6h-6Z"/><path id="svg_108" fill="#82ba4a" d="M1.29 45.26h6v6.27h-6Z"/><path id="svg_109" fill="#1818e2" d="M43.01 26.71h6v6h-6Z"/><path id="svg_111" fill="#c62bc6" d="M54.85 49.85h5.8v6h-5.8Z"/><path id="svg_112" fill="#c62bc6" d="M60.5 43.95h6v6h-6Z"/><path id="svg_115" fill="#c62bc6" d="M1.4 21.92h6v6h-6Z"/><use xlink:href="#svg_121" id="svg_122" x="54.89" y="10.49" fill="#fff" stroke-width="20" transform="matrix(.48504 0 0 .45434 3.058 -1.187)"/><use xlink:href="#svg_121" id="svg_123" x="86.9" y="36.14" fill="#fff" stroke-width="20" transform="rotate(180.306 46.141 20.442)scale(.48504 .45434)"/><use xlink:href="#svg_121" id="svg_124" x="37.8" y="19.12" fill="#fff" stroke-width="20" transform="rotate(180.306 21.796 12.709)scale(.48504 .45434)"/><use xlink:href="#svg_121" id="svg_125" x="125.35" y="3.27" fill="#fff" stroke-width="20" transform="matrix(.48504 0 0 .45434 -2.786 -1.057)"/></g></svg>