<svg xmlns="http://www.w3.org/2000/svg" xmlns:xlink="http://www.w3.org/1999/xlink" width="500" height="500" shape-rendering="crispEdges"><defs><symbol id="svg_121" viewBox="0 96 960 960"><path d="m385 793-86-182-181-86 181-86 86-182 87 182 179 86-180 86Zm330 103-43-86-85-43 85-43 44-85 42 85 85 43-85 43Z"/></symbol></defs><g class="layer"><g id="svg_127"><path id="svg_3" fill="#1818e2" d="M80 80h40v40H80Z"/><path id="svg_5" fill="#1818e2" d="M80 120h40v40H80Z"/><path id="svg_6" fill="#1818e2" d="M80 120h40v40H80Z"/><path id="svg_8" fill="#1818e2" d="M120 160h40v40h-40Z"/><path id="svg_9" fill="#1818e2" d="M80 160h40v40H80Z"/><path id="svg_13" fill="#1818e2" d="M120 160h40v40h-40Z"/><path id="svg_10" fill="#1818e2" d="M120 200h40v40h-40Z"/><path id="svg_17" fill="#1818e2" d="M160 240h40v40h-40Z"/><path id="svg_16" fill="#1818e2" d="M200 240h40v40h-40Z"/><path id="svg_15" fill="#1818e2" d="M200 240h40v40h-40Z"/><path id="svg_14" fill="#1818e2" d="M160 240h40v40h-40Z"/><path id="svg_21" fill="#1818e2" d="M240 240h40v40h-40Z"/><path id="svg_20" fill="#1818e2" d="M280 240h40v40h-40Z"/><path id="svg_19" fill="#1818e2" d="M280 280h40v40h-40Z"/><path id="svg_18" fill="#1818e2" d="M240 280h40v40h-40Z"/><path id="svg_22" fill="#1818e2" d="M400 120h40v40h-40Z"/><path id="svg_24" fill="#1818e2" d="M320 240h40v40h-40Z"/><path id="svg_25" fill="#1818e2" d="M280 200h40v40h-40Z"/><path id="svg_26" fill="#1818e2" d="M160 280h40v40h-40Z"/><path id="svg_31" fill="#1818e2" d="M320 200h40v40h-40Z"/><path id="svg_30" fill="#1818e2" d="M360 200h40v40h-40Z"/><path id="svg_28" fill="#1818e2" d="M400 240h40v40h-40Z"/><path id="svg_27" fill="#1818e2" d="M360 240h40v40h-40Z"/><path id="svg_33" fill="#1818e2" d="M360 160h40v40h-40Z"/><path id="svg_35" fill="#1818e2" d="M360 120h40v40h-40Z"/><path id="svg_37" fill="#1818e2" d="M400 80h40v40h-40Z"/><path id="svg_38" fill="#1818e2" d="M440 80h40v40h-40Z"/><path id="svg_41" fill="#1818e2" d="M200 320h40v40h-40Z"/><path id="svg_42" fill="#c62bc6" d="M80 160h40v40H80Z"/><path id="svg_43" fill="#c62bc6" d="M80 160h40v40H80Z"/><path id="svg_44" fill="#c62bc6" d="M80 160h40v40H80Z"/><path id="svg_45" fill="#c62bc6" d="M80 200h40v40H80Z"/><path id="svg_46" fill="#c62bc6" d="M80 240h40v40H80Z"/><path id="svg_47" fill="#c62bc6" d="M120 240h40v40h-40Z"/><path id="svg_48" fill="#c62bc6" d="M120 240h40v40h-40Z"/><path id="svg_49" fill="#c62bc6" d="M80 240h40v40H80Z"/><path id="svg_50" fill="#c62bc6" d="M200 280h40v40h-40Z"/><path id="svg_51" fill="#c62bc6" d="M400 200h40v40h-40Z"/><path id="svg_52" fill="#c62bc6" d="M440 200h40v40h-40Z"/><path id="svg_53" fill="#c62bc6" d="M360 280h40v40h-40Z"/><path id="svg_54" fill="#c62bc6" d="M440 120h40v40h-40Z"/><path id="svg_55" fill="#c62bc6" d="M120 280h40v40h-40Z"/><path id="svg_56" fill="#c62bc6" d="M120 280h40v40h-40Z"/><path id="svg_57" fill="#c62bc6" d="M280 320h40v40h-40Z"/><path id="svg_58" fill="#82ba4a" d="M80 280h40v40H80Z"/><path id="svg_59" fill="#82ba4a" d="M80 360h40v40H80Z"/><path id="svg_60" fill="#82ba4a" d="M80 320h40v40H80Z"/><path id="svg_61" fill="#82ba4a" d="M120 320h40v40h-40Z"/><path id="svg_62" fill="#82ba4a" d="M80 320h40v40H80Z"/><path id="svg_63" fill="#82ba4a" d="M160 320h40v40h-40Z"/><path id="svg_64" fill="#82ba4a" d="M80 320h40v40H80Z"/><path id="svg_65" fill="#82ba4a" d="M80 360h40v40H80Z"/><path id="svg_66" fill="#82ba4a" d="M320 280h40v40h-40Z"/><path id="svg_67" fill="#82ba4a" d="M320 320h40v40h-40Z"/><path id="svg_68" fill="#82ba4a" d="M320 360h40v40h-40Z"/><path id="svg_69" fill="#82ba4a" d="M360 360h40v40h-40Z"/><path id="svg_70" fill="#82ba4a" d="M440 240h40v40h-40Z"/><path id="svg_71" fill="#82ba4a" d="M440 280h40v40h-40Z"/><path id="svg_72" fill="#82ba4a" d="M240 320h40v40h-40Z"/><path id="svg_73" fill="#82ba4a" d="M200 320h40v40h-40Z"/><path id="svg_76" fill="#82ba4a" d="M240 320h40v40h-40Z"/><path id="svg_75" fill="#82ba4a" d="M240 360h40v40h-40Z"/><path id="svg_74" fill="#82ba4a" d="M240 400h40v40h-40Z"/><path id="svg_77" fill="#82ba4a" d="M280 360h40v40h-40Z"/><path id="svg_79" fill="#1818e2" d="M40 80h40v40H40Z"/><path id="svg_80" fill="#1818e2" d="M440 80h40v40h-40Z"/><path id="svg_89" fill="#82ba4a" d="M80 400h40v40H80Z"/><path id="svg_88" fill="#82ba4a" d="M120 360h40v40h-40Z"/><path id="svg_86" fill="#82ba4a" d="M120 360h40v40h-40Z"/><path id="svg_85" fill="#82ba4a" d="M160 360h40v40h-40Z"/><path id="svg_84" fill="#82ba4a" d="M80 360h40v40H80Z"/><path id="svg_83" fill="#82ba4a" d="M80 400h40v40H80Z"/><path id="svg_97" fill="#82ba4a" d="M440 320h40v40h-40Z"/><path id="svg_102" fill="#1818e2" d="M400 160h40v40h-40Z"/><path id="svg_103" fill="#82ba4a" d="M360 400h40v40h-40Z"/><path id="svg_104" fill="#82ba4a" d="M400 320h40v40h-40Z"/><path id="svg_105" fill="#82ba4a" d="M440 360h40v40h-40Z"/><path id="svg_108" fill="#82ba4a" d="M40 280h40v40H40Z"/><path id="svg_109" fill="#1818e2" d="M280 160h40v40h-40Z"/><path id="svg_111" fill="#c62bc6" d="M360 320h40v40h-40Z"/><path id="svg_112" fill="#c62bc6" d="M400 280h40v40h-40Z"/><path id="svg_115" fill="#c62bc6" d="M40 160h40v40H40Z"/></g><use xlink:href="#svg_121" id="svg_122" width="40" height="40" x="131.48" y="57.68" fill="#fff"/><use xlink:href="#svg_121" id="svg_133" width="40" height="40" x="170.7" y="102.56" fill="#fff"/><use xlink:href="#svg_121" id="svg_134" width="40" height="40" x="190.81" y="151.96" fill="#fff"/><use xlink:href="#svg_121" id="svg_135" width="40" height="40" x="254.65" y="116.85" fill="#fff"/><use xlink:href="#svg_121" id="svg_136" width="40" height="40" x="305.81" y="77.47" fill="#fff"/><use xlink:href="#svg_121" id="svg_137" width="40" height="40" x="349.94" y="55.71" fill="#fff"/><use xlink:href="#svg_121" id="svg_138" width="40" height="40" x="246.91" y="49.85" fill="#fff"/></g></svg>