<svg width="500" height="500" xmlns="http://www.w3.org/2000/svg" xmlns:xlink="http://www.w3.org/1999/xlink"><defs><symbol id="svg_121" viewBox="0 96 960 960" xmlns="http://www.w3.org/2000/svg"><path d="m385 793-86-182-181-86 181-86 86-182 87 182 179 86-180 86-86 182zm330 103-43-86-85-43 85-43 44-85 42 85 85 43-85 43-43 86z"/></symbol></defs><g class="layer" stroke="#000" stroke-opacity="0"><use fill="#fff" id="svg_122" stroke-width="20" transform="matrix(1.52423 0 0 1.49356 159.946 -66.928)" x="-1.48" xlink:href="#svg_121" y="57.68"/><g id="svg_127"><path fill="#1818e2" id="svg_3" d="M61.61 66.21h37.78v39.07H61.61z"/><path fill="#1818e2" id="svg_5" d="M61.59 103.73h37.78v39.07H61.59z"/><path fill="#1818e2" id="svg_6" d="M97.15 103.55h37.78v39.07H97.15z"/><path fill="#1818e2" id="svg_8" d="M133.49 140.76h40.86v39.07h-40.86z"/><path fill="#1818e2" id="svg_9" d="M97.15 140.76h37.78v39.07H97.15z"/><path fill="#1818e2" id="svg_13" d="M131.45 178.55h43.16v39.07h-43.16z"/><path fill="#1818e2" id="svg_10" d="M130.68 215.76h43.93v39.07h-43.93z"/><path fill="#1818e2" id="svg_17" d="M174.18 222.74h37.78v39.07h-37.78z"/><path fill="#1818e2" id="svg_16" d="M211.29 222.74h37.78v39.07h-37.78z"/><path fill="#1818e2" id="svg_15" d="M211.29 255.52h37.78v39.07h-37.78z"/><path fill="#1818e2" id="svg_14" d="M174.18 255.52h37.78v39.07h-37.78z"/><path fill="#1818e2" id="svg_21" d="M247.83 246.8h37.78v39.07h-37.78z"/><path fill="#1818e2" id="svg_20" d="M284.94 246.8h37.78v39.07h-37.78z"/><path fill="#1818e2" id="svg_19" d="M284.94 284h37.78v39.07h-37.78z"/><path fill="#1818e2" id="svg_18" d="M248.82 284h37.78v39.07h-37.78z"/><path fill="#1818e2" id="svg_22" d="M396.47 134.12h37.78v39.07h-37.78z"/><path fill="#1818e2" id="svg_24" d="M322.18 246.93h37.78V286h-37.78z"/><path fill="#1818e2" id="svg_25" d="M286.07 209.83h37.78v39.07h-37.78z"/><path fill="#1818e2" id="svg_26" d="M174.26 293.99h37.78v39.07h-37.78z"/><path fill="#1818e2" id="svg_31" d="M322.13 209.63h37.78v39.07h-37.78z"/><path fill="#1818e2" id="svg_30" d="M359.4 209.45h37.78v39.07H359.4z"/><path fill="#1818e2" id="svg_28" d="M396.51 245.78h37.78v39.07h-37.78z"/><path fill="#1818e2" id="svg_27" d="M359.4 246.66h37.78v39.07H359.4z"/><path fill="#1818e2" id="svg_33" d="M359.32 172.18h37.78v39.07h-37.78z"/><path fill="#1818e2" id="svg_35" d="M359.32 134.08h37.78v39.07h-37.78z"/><path fill="#1818e2" id="svg_37" d="M396.38 95.94h37.78v39.07h-37.78z"/><path fill="#1818e2" id="svg_38" d="M432.79 95.94h37.78v39.07h-37.78z"/><rect fill="#1818e2" id="svg_41" x="189.66" y="314.61"/><path fill="#c62bc6" id="svg_42" d="M61.34 141.2h37.78v39.07H61.34z"/><path fill="#c62bc6" id="svg_43" d="M93.9 179.3h37.78v39.07H93.9z"/><path fill="#c62bc6" id="svg_44" d="M61.34 179.3h37.78v39.07H61.34z"/><path fill="#c62bc6" id="svg_45" d="M93.9 216.51h37.78v39.07H93.9z"/><path fill="#c62bc6" id="svg_46" d="M93.9 254.16h37.78v39.07H93.9z"/><path fill="#c62bc6" id="svg_47" d="M136.74 254.16h37.78v39.07h-37.78z"/><path fill="#c62bc6" id="svg_48" d="M111.89 254.16h37.78v39.07h-37.78z"/><path fill="#c62bc6" id="svg_49" d="M61.34 254.16h37.78v39.07H61.34z"/><path fill="#c62bc6" id="svg_50" d="M211.28 294.03h37.78v39.07h-37.78z"/><path fill="#c62bc6" id="svg_51" d="M396.35 207.65h37.78v39.07h-37.78z"/><path fill="#c62bc6" id="svg_52" d="M433.19 207.65h37.78v39.07h-37.78z"/><path fill="#c62bc6" id="svg_53" d="M359.44 284.28h37.78v39.07h-37.78z"/><path fill="#c62bc6" id="svg_54" d="M432.69 134.12h37.78v39.07h-37.78z"/><path fill="#c62bc6" id="svg_55" d="M136.68 288.27h37.78v39.07h-37.78z"/><path fill="#c62bc6" id="svg_56" d="M136.68 294.03h37.78v39.07h-37.78z"/><path fill="#c62bc6" id="svg_57" d="M284.9 322.38h38.21v39.07H284.9z"/><path fill="#82ba4a" id="svg_58" d="M98.98 293.14h37.78v39.07H98.98z"/><rect fill="#82ba4a" id="svg_59" x="97.06" y="362.89"/><path fill="#82ba4a" id="svg_60" d="M98.98 327.25h37.78v39.07H98.98z"/><path fill="#82ba4a" id="svg_61" d="M136.25 333.01h37.78v39.07h-37.78z"/><path fill="#82ba4a" id="svg_62" d="M98.98 333.01h37.78v39.07H98.98z"/><path fill="#82ba4a" id="svg_63" d="M173.52 333.01h37.78v39.07h-37.78z"/><path fill="#82ba4a" id="svg_64" d="M61.28 333.62h37.78v39.07H61.28z"/><path fill="#82ba4a" id="svg_65" d="M61.34 370.66h37.78v39.07H61.34z"/><path fill="#82ba4a" id="svg_66" d="M322.79 284.28h37.78v39.07h-37.78z"/><path fill="#82ba4a" id="svg_67" d="M322.79 322.38h37.78v39.07h-37.78z"/><path fill="#82ba4a" id="svg_68" d="M322.37 360.92h37.78v39.07h-37.78z"/><path fill="#82ba4a" id="svg_69" d="M359.21 360.92h37.78v39.07h-37.78z"/><path fill="#82ba4a" id="svg_70" d="M433.75 246.19h37.78v39.07h-37.78z"/><path fill="#82ba4a" id="svg_71" d="M433.75 284.73h37.78v39.07h-37.78z"/><path fill="#82ba4a" id="svg_72" d="M249.11 322.82h37.78v39.07h-37.78z"/><path fill="#82ba4a" id="svg_73" d="M210.98 333.01h37.78v39.07h-37.78z"/><path fill="#82ba4a" id="svg_76" d="M248.68 322.38h37.78v39.07h-37.78z"/><path fill="#82ba4a" id="svg_75" d="M248.68 359.59h37.78v39.07h-37.78z"/><path fill="#82ba4a" id="svg_74" d="M248.68 398.12h37.78v39.07h-37.78z"/><path fill="#82ba4a" id="svg_77" d="M285.1 360.92h37.78v39.07H285.1z"/><path fill="#1818e2" id="svg_79" d="M27.68 66.28h37.78v39.07H27.68z"/><path fill="#1818e2" id="svg_80" d="M432.96 60.21h37.78v39.07h-37.78z"/><rect fill="#82ba4a" id="svg_89" x="98.43" y="401.41"/><path fill="#82ba4a" id="svg_88" d="M100.34 365.77h37.78v39.07h-37.78z"/><path fill="#82ba4a" id="svg_86" d="M100.34 371.53h37.78v39.07h-37.78z"/><path fill="#82ba4a" id="svg_85" d="M174.88 371.53h37.78v39.07h-37.78z"/><path fill="#82ba4a" id="svg_84" d="M62.64 371.53h37.78v39.07H62.64z"/><path fill="#82ba4a" id="svg_83" d="M61.42 409.62H99.2v39.07H61.42z"/><path fill="#82ba4a" id="svg_97" d="M433.6 323.26h37.78v39.07H433.6z"/><path fill="#1818e2" id="svg_102" d="M394.55 168.84h37.78v39.07h-37.78z"/><path fill="#82ba4a" id="svg_103" d="M359.42 399.62h37.78v39.07h-37.78z"/><path fill="#82ba4a" id="svg_104" d="M397.12 322.99h37.78v39.07h-37.78z"/><path fill="#82ba4a" id="svg_105" d="M433.41 361.83h37.78v39.07h-37.78z"/><path fill="#82ba4a" id="svg_108" d="M23.25 293.07h37.78v40.84H23.25z"/><path fill="#1818e2" id="svg_109" d="M286.02 172.28h37.78v39.07h-37.78z"/><path fill="#c62bc6" id="svg_111" d="M360.56 322.96h36.5v39.07h-36.5z"/><path fill="#c62bc6" id="svg_112" d="M396.12 284.59h37.78v39.07h-37.78z"/><path fill="#c62bc6" id="svg_115" d="M23.99 141.1h37.78v39.07H23.99z"/></g><use fill="#fff" id="svg_133" stroke-width="20" transform="matrix(1.52423 0 0 1.49356 159.946 -66.928)" x="29.7" xlink:href="#svg_121" y="102.56"/><use fill="#fff" id="svg_134" stroke-width="20" transform="matrix(1.52423 0 0 1.49356 159.946 -66.928)" x="33.81" xlink:href="#svg_121" y="151.96"/><use fill="#fff" id="svg_135" stroke-width="20" transform="matrix(1.52423 0 0 1.49356 159.946 -66.928)" x="84.65" xlink:href="#svg_121" y="126.85"/><use fill="#fff" id="svg_136" stroke-width="20" transform="matrix(1.52423 0 0 1.49356 159.946 -66.928)" x="115.81" xlink:href="#svg_121" y="77.47"/><use fill="#fff" id="svg_137" stroke-width="20" transform="matrix(1.52423 0 0 1.49356 159.946 -66.928)" x="169.94" xlink:href="#svg_121" y="55.71"/><use fill="#fff" id="svg_138" stroke-width="20" transform="matrix(1.52423 0 0 1.49356 159.946 -66.928)" x="-76.91" xlink:href="#svg_121" y="49.85"/></g></svg>