<svg xmlns="http://www.w3.org/2000/svg" xmlns:xlink="http://www.w3.org/1999/xlink" width="500" height="500"><defs><symbol xmlns="http://www.w3.org/2000/svg" id="svg_121" viewBox="0 96 960 960"><path d="m385 793-86-182-181-86 181-86 86-182 87 182 179 86-180 86Zm330 103-43-86-85-43 85-43 44-85 42 85 85 43-85 43Z"/></symbol></defs><g stroke="#000" stroke-opacity="0" class="layer"><use xlink:href="#svg_121" id="svg_122" x="-1.48" y="57.68" fill="#fff" stroke-width="20" transform="matrix(1.52423 0 0 1.49356 159.946 -66.928)"/><g id="svg_127"><path id="svg_3" fill="#1818e2" d="M61.61 66.21h37.78v39.07H61.61Z"/><path id="svg_5" fill="#1818e2" d="M61.59 103.73h37.78v39.07H61.59Z"/><path id="svg_6" fill="#1818e2" d="M97.15 103.55h37.78v39.07H97.15Z"/><path id="svg_8" fill="#1818e2" d="M133.49 140.76h40.86v39.07h-40.86Z"/><path id="svg_9" fill="#1818e2" d="M97.15 140.76h37.78v39.07H97.15Z"/><path id="svg_13" fill="#1818e2" d="M131.45 178.55h43.16v39.07h-43.16Z"/><path id="svg_10" fill="#1818e2" d="M130.68 215.76h43.93v39.07h-43.93Z"/><path id="svg_17" fill="#1818e2" d="M174.18 222.74h37.78v39.07h-37.78Z"/><path id="svg_16" fill="#1818e2" d="M211.29 222.74h37.78v39.07h-37.78Z"/><path id="svg_15" fill="#1818e2" d="M211.29 255.52h37.78v39.07h-37.78Z"/><path id="svg_14" fill="#1818e2" d="M174.18 255.52h37.78v39.07h-37.78Z"/><path id="svg_21" fill="#1818e2" d="M247.83 246.8h37.78v39.07h-37.78Z"/><path id="svg_20" fill="#1818e2" d="M284.94 246.8h37.78v39.07h-37.78Z"/><path id="svg_19" fill="#1818e2" d="M284.94 284h37.78v39.07h-37.78Z"/><path id="svg_18" fill="#1818e2" d="M248.82 284h37.78v39.07h-37.78Z"/><path id="svg_22" fill="#1818e2" d="M396.47 134.12h37.78v39.07h-37.78Z"/><path id="svg_24" fill="#1818e2" d="M322.18 246.93h37.78V286h-37.78Z"/><path id="svg_25" fill="#1818e2" d="M286.07 209.83h37.78v39.07h-37.78Z"/><path id="svg_26" fill="#1818e2" d="M174.26 293.99h37.78v39.07h-37.78Z"/><path id="svg_31" fill="#1818e2" d="M322.13 209.63h37.78v39.07h-37.78Z"/><path id="svg_30" fill="#1818e2" d="M359.4 209.45h37.78v39.07H359.4Z"/><path id="svg_28" fill="#1818e2" d="M396.51 245.78h37.78v39.07h-37.78Z"/><path id="svg_27" fill="#1818e2" d="M359.4 246.66h37.78v39.07H359.4Z"/><path id="svg_33" fill="#1818e2" d="M359.32 172.18h37.78v39.07h-37.78Z"/><path id="svg_35" fill="#1818e2" d="M359.32 134.08h37.78v39.07h-37.78Z"/><path id="svg_37" fill="#1818e2" d="M396.38 95.94h37.78v39.07h-37.78Z"/><path id="svg_38" fill="#1818e2" d="M432.79 95.94h37.78v39.07h-37.78Z"/><rect id="svg_41" x="189.66" y="314.61" fill="#1818e2"/><path id="svg_42" fill="#c62bc6" d="M61.34 141.2h37.78v39.07H61.34Z"/><path id="svg_43" fill="#c62bc6" d="M93.9 179.3h37.78v39.07H93.9Z"/><path id="svg_44" fill="#c62bc6" d="M61.34 179.3h37.78v39.07H61.34Z"/><path id="svg_45" fill="#c62bc6" d="M93.9 216.51h37.78v39.07H93.9Z"/><path id="svg_46" fill="#c62bc6" d="M93.9 254.16h37.78v39.07H93.9Z"/><path id="svg_47" fill="#c62bc6" d="M136.74 254.16h37.78v39.07h-37.78Z"/><path id="svg_48" fill="#c62bc6" d="M111.89 254.16h37.78v39.07h-37.78Z"/><path id="svg_49" fill="#c62bc6" d="M61.34 254.16h37.78v39.07H61.34Z"/><path id="svg_50" fill="#c62bc6" d="M211.28 294.03h37.78v39.07h-37.78Z"/><path id="svg_51" fill="#c62bc6" d="M396.35 207.65h37.78v39.07h-37.78Z"/><path id="svg_52" fill="#c62bc6" d="M433.19 207.65h37.78v39.07h-37.78Z"/><path id="svg_53" fill="#c62bc6" d="M359.44 284.28h37.78v39.07h-37.78Z"/><path id="svg_54" fill="#c62bc6" d="M432.69 134.12h37.78v39.07h-37.78Z"/><path id="svg_55" fill="#c62bc6" d="M136.68 288.27h37.78v39.07h-37.78Z"/><path id="svg_56" fill="#c62bc6" d="M136.68 294.03h37.78v39.07h-37.78Z"/><path id="svg_57" fill="#c62bc6" d="M284.9 322.38h38.21v39.07H284.9Z"/><path id="svg_58" fill="#82ba4a" d="M98.98 293.14h37.78v39.07H98.98Z"/><rect id="svg_59" x="97.06" y="362.89" fill="#82ba4a"/><path id="svg_60" fill="#82ba4a" d="M98.98 327.25h37.78v39.07H98.98Z"/><path id="svg_61" fill="#82ba4a" d="M136.25 333.01h37.78v39.07h-37.78Z"/><path id="svg_62" fill="#82ba4a" d="M98.98 333.01h37.78v39.07H98.98Z"/><path id="svg_63" fill="#82ba4a" d="M173.52 333.01h37.78v39.07h-37.78Z"/><path id="svg_64" fill="#82ba4a" d="M61.28 333.62h37.78v39.07H61.28Z"/><path id="svg_65" fill="#82ba4a" d="M61.34 370.66h37.78v39.07H61.34Z"/><path id="svg_66" fill="#82ba4a" d="M322.79 284.28h37.78v39.07h-37.78Z"/><path id="svg_67" fill="#82ba4a" d="M322.79 322.38h37.78v39.07h-37.78Z"/><path id="svg_68" fill="#82ba4a" d="M322.37 360.92h37.78v39.07h-37.78Z"/><path id="svg_69" fill="#82ba4a" d="M359.21 360.92h37.78v39.07h-37.78Z"/><path id="svg_70" fill="#82ba4a" d="M433.75 246.19h37.78v39.07h-37.78Z"/><path id="svg_71" fill="#82ba4a" d="M433.75 284.73h37.78v39.07h-37.78Z"/><path id="svg_72" fill="#82ba4a" d="M249.11 322.82h37.78v39.07h-37.78Z"/><path id="svg_73" fill="#82ba4a" d="M210.98 333.01h37.78v39.07h-37.78Z"/><path id="svg_76" fill="#82ba4a" d="M248.68 322.38h37.78v39.07h-37.78Z"/><path id="svg_75" fill="#82ba4a" d="M248.68 359.59h37.78v39.07h-37.78Z"/><path id="svg_74" fill="#82ba4a" d="M248.68 398.12h37.78v39.07h-37.78Z"/><path id="svg_77" fill="#82ba4a" d="M285.1 360.92h37.78v39.07H285.1Z"/><path id="svg_79" fill="#1818e2" d="M27.68 66.28h37.78v39.07H27.68Z"/><path id="svg_80" fill="#1818e2" d="M432.96 60.21h37.78v39.07h-37.78Z"/><rect id="svg_89" x="98.43" y="401.41" fill="#82ba4a"/><path id="svg_88" fill="#82ba4a" d="M100.34 365.77h37.78v39.07h-37.78Z"/><path id="svg_86" fill="#82ba4a" d="M100.34 371.53h37.78v39.07h-37.78Z"/><path id="svg_85" fill="#82ba4a" d="M174.88 371.53h37.78v39.07h-37.78Z"/><path id="svg_84" fill="#82ba4a" d="M62.64 371.53h37.78v39.07H62.64Z"/><path id="svg_83" fill="#82ba4a" d="M61.42 409.62H99.2v39.07H61.42Z"/><path id="svg_97" fill="#82ba4a" d="M433.6 323.26h37.78v39.07H433.6Z"/><path id="svg_102" fill="#1818e2" d="M394.55 168.84h37.78v39.07h-37.78Z"/><path id="svg_103" fill="#82ba4a" d="M359.42 399.62h37.78v39.07h-37.78Z"/><path id="svg_104" fill="#82ba4a" d="M397.12 322.99h37.78v39.07h-37.78Z"/><path id="svg_105" fill="#82ba4a" d="M433.41 361.83h37.78v39.07h-37.78Z"/><path id="svg_108" fill="#82ba4a" d="M23.25 293.07h37.78v40.84H23.25Z"/><path id="svg_109" fill="#1818e2" d="M286.02 172.28h37.78v39.07h-37.78Z"/><path id="svg_111" fill="#c62bc6" d="M360.56 322.96h36.5v39.07h-36.5Z"/><path id="svg_112" fill="#c62bc6" d="M396.12 284.59h37.78v39.07h-37.78Z"/><path id="svg_115" fill="#c62bc6" d="M23.99 141.1h37.78v39.07H23.99Z"/></g><use xlink:href="#svg_121" id="svg_133" x="29.7" y="102.56" fill="#fff" stroke-width="20" transform="matrix(1.52423 0 0 1.49356 159.946 -66.928)"/><use xlink:href="#svg_121" id="svg_134" x="33.81" y="151.96" fill="#fff" stroke-width="20" transform="matrix(1.52423 0 0 1.49356 159.946 -66.928)"/><use xlink:href="#svg_121" id="svg_135" x="84.65" y="126.85" fill="#fff" stroke-width="20" transform="matrix(1.52423 0 0 1.49356 159.946 -66.928)"/><use xlink:href="#svg_121" id="svg_136" x="115.81" y="77.47" fill="#fff" stroke-width="20" transform="matrix(1.52423 0 0 1.49356 159.946 -66.928)"/><use xlink:href="#svg_121" id="svg_137" x="169.94" y="55.71" fill="#fff" stroke-width="20" transform="matrix(1.52423 0 0 1.49356 159.946 -66.928)"/><use xlink:href="#svg_121" id="svg_138" x="-76.91" y="49.85" fill="#fff" stroke-width="20" transform="matrix(1.52423 0 0 1.49356 159.946 -66.928)"/></g></svg>