<svg xmlns="http://www.w3.org/2000/svg" xmlns:xlink="http://www.w3.org/1999/xlink" width="250" height="250"><defs><symbol xmlns="http://www.w3.org/2000/svg" id="svg_121" viewBox="0 96 960 960"><path d="m385 793-86-182-181-86 181-86 86-182 87 182 179 86-180 86Zm330 103-43-86-85-43 85-43 44-85 42 85 85 43-85 43Z"/></symbol></defs><g class="layer"><g id="svg_139" stroke="#000" stroke-opacity="0"><use xlink:href="#svg_121" id="svg_122" x="-1.48" y="48.71" fill="#fff" stroke-width="20" transform="matrix(.7422 0 0 .69739 81.061 -14.565)"/><path id="svg_3" fill="#1818e2" d="M33.18 41.35h18.4v18.24h-18.4Z"/><path id="svg_5" fill="#1818e2" d="M33.17 58.87h18.4v18.24h-18.4Z"/><path id="svg_6" fill="#1818e2" d="M50.48 58.79h18.4v18.24h-18.4Z"/><path id="svg_8" fill="#1818e2" d="M68.18 76.16h19.89V94.4H68.18Z"/><path id="svg_9" fill="#1818e2" d="M50.48 76.16h18.4V94.4h-18.4Z"/><path id="svg_13" fill="#1818e2" d="M67.18 93.81H88.2v18.24H67.18Z"/><path id="svg_10" fill="#1818e2" d="M66.81 111.18H88.2v18.24H66.81Z"/><path id="svg_17" fill="#1818e2" d="M87.99 114.44h18.4v18.24h-18.4Z"/><path id="svg_16" fill="#1818e2" d="M106.06 114.44h18.4v18.24h-18.4Z"/><path id="svg_15" fill="#1818e2" d="M106.06 129.74h18.4v18.24h-18.4Z"/><path id="svg_14" fill="#1818e2" d="M87.99 129.74h18.4v18.24h-18.4Z"/><path id="svg_21" fill="#1818e2" d="M123.86 125.67h18.4v18.24h-18.4Z"/><path id="svg_20" fill="#1818e2" d="M141.93 125.67h18.4v18.24h-18.4Z"/><path id="svg_19" fill="#1818e2" d="M141.93 143.04h18.4v18.24h-18.4Z"/><path id="svg_18" fill="#1818e2" d="M124.34 143.04h18.4v18.24h-18.4Z"/><path id="svg_22" fill="#1818e2" d="M196.23 73.06h18.4V91.3h-18.4Z"/><path id="svg_24" fill="#1818e2" d="M160.06 125.74h18.4v18.24h-18.4Z"/><path id="svg_25" fill="#1818e2" d="M142.47 108.41h18.4v18.24h-18.4Z"/><path id="svg_26" fill="#1818e2" d="M88.03 147.71h18.4v18.24h-18.4Z"/><path id="svg_31" fill="#1818e2" d="M160.03 108.32h18.4v18.24h-18.4Z"/><path id="svg_30" fill="#1818e2" d="M178.18 108.23h18.4v18.24h-18.4Z"/><path id="svg_28" fill="#1818e2" d="M196.25 125.2h18.4v18.24h-18.4Z"/><path id="svg_27" fill="#1818e2" d="M178.18 125.61h18.4v18.24h-18.4Z"/><path id="svg_33" fill="#1818e2" d="M178.14 90.83h18.4v18.24h-18.4Z"/><path id="svg_35" fill="#1818e2" d="M178.14 73.04h18.4v18.24h-18.4Z"/><path id="svg_37" fill="#1818e2" d="M196.19 55.23h18.4v18.24h-18.4Z"/><path id="svg_38" fill="#1818e2" d="M213.92 55.23h18.4v18.24h-18.4Z"/><path id="svg_42" fill="#c62bc6" d="M33.05 76.37h18.4v18.24h-18.4Z"/><path id="svg_43" fill="#c62bc6" d="M48.9 94.16h18.4v18.24H48.9Z"/><path id="svg_44" fill="#c62bc6" d="M33.05 94.16h18.4v18.24h-18.4Z"/><path id="svg_45" fill="#c62bc6" d="M48.9 111.53h18.4v18.24H48.9Z"/><path id="svg_46" fill="#c62bc6" d="M48.9 129.11h18.4v18.24H48.9Z"/><path id="svg_47" fill="#c62bc6" d="M69.76 129.11h18.4v18.24h-18.4Z"/><path id="svg_48" fill="#c62bc6" d="M57.66 129.11h18.4v18.24h-18.4Z"/><path id="svg_49" fill="#c62bc6" d="M33.05 129.11h18.4v18.24h-18.4Z"/><path id="svg_50" fill="#c62bc6" d="M106.06 147.72h18.4v18.24h-18.4Z"/><path id="svg_51" fill="#c62bc6" d="M196.17 107.39h18.4v18.24h-18.4Z"/><path id="svg_52" fill="#c62bc6" d="M214.11 107.39h18.4v18.24h-18.4Z"/><path id="svg_53" fill="#c62bc6" d="M178.2 143.17h18.4v18.24h-18.4Z"/><path id="svg_54" fill="#c62bc6" d="M213.87 73.06h18.4V91.3h-18.4Z"/><path id="svg_55" fill="#c62bc6" d="M69.73 145.04h18.4v18.24h-18.4Z"/><path id="svg_56" fill="#c62bc6" d="M69.73 147.72h18.4v18.24h-18.4Z"/><path id="svg_57" fill="#c62bc6" d="M141.9 160.96h18.61v18.24H141.9Z"/><path id="svg_58" fill="#82ba4a" d="M51.37 147.31h18.4v18.24h-18.4Z"/><path id="svg_60" fill="#82ba4a" d="M51.37 163.24h18.4v18.24h-18.4Z"/><path id="svg_61" fill="#82ba4a" d="M69.52 165.93h18.4v18.24h-18.4Z"/><path id="svg_62" fill="#82ba4a" d="M51.37 165.93h18.4v18.24h-18.4Z"/><path id="svg_63" fill="#82ba4a" d="M87.67 165.93h18.4v18.24h-18.4Z"/><path id="svg_64" fill="#82ba4a" d="M33.02 166.21h18.4v18.24h-18.4Z"/><path id="svg_65" fill="#82ba4a" d="M33.05 183.51h18.4v18.24h-18.4Z"/><path id="svg_66" fill="#82ba4a" d="M160.36 143.17h18.4v18.24h-18.4Z"/><path id="svg_67" fill="#82ba4a" d="M160.36 160.96h18.4v18.24h-18.4Z"/><path id="svg_68" fill="#82ba4a" d="M160.15 178.96h18.4v18.24h-18.4Z"/><path id="svg_69" fill="#82ba4a" d="M178.09 178.96h18.4v18.24h-18.4Z"/><path id="svg_70" fill="#82ba4a" d="M214.38 125.39h18.4v18.24h-18.4Z"/><path id="svg_71" fill="#82ba4a" d="M214.38 143.38h18.4v18.24h-18.4Z"/><path id="svg_72" fill="#82ba4a" d="M124.48 161.17h18.4v18.24h-18.4Z"/><path id="svg_73" fill="#82ba4a" d="M105.91 165.93h18.4v18.24h-18.4Z"/><path id="svg_76" fill="#82ba4a" d="M124.27 160.96h18.4v18.24h-18.4Z"/><path id="svg_75" fill="#82ba4a" d="M124.27 178.34h18.4v18.24h-18.4Z"/><path id="svg_74" fill="#82ba4a" d="M124.27 196.33h18.4v18.24h-18.4Z"/><path id="svg_77" fill="#82ba4a" d="M142 178.96h18.4v18.24H142Z"/><path id="svg_79" fill="#1818e2" d="M16.66 41.38h18.4v18.24h-18.4Z"/><path id="svg_80" fill="#1818e2" d="M214 38.55h18.4v18.24H214Z"/><path id="svg_88" fill="#82ba4a" d="M52.04 181.22h18.4v18.24h-18.4Z"/><path id="svg_86" fill="#82ba4a" d="M52.04 183.91h18.4v18.24h-18.4Z"/><path id="svg_85" fill="#82ba4a" d="M88.33 183.91h18.4v18.24h-18.4Z"/><path id="svg_84" fill="#82ba4a" d="M33.68 183.91h18.4v18.24h-18.4Z"/><path id="svg_83" fill="#82ba4a" d="M33.09 201.7h18.4v18.24h-18.4Z"/><path id="svg_97" fill="#82ba4a" d="M214.31 161.38h18.4v18.24h-18.4Z"/><path id="svg_102" fill="#1818e2" d="M195.3 89.27h18.4v18.24h-18.4Z"/><path id="svg_103" fill="#82ba4a" d="M178.19 197.03h18.4v18.24h-18.4Z"/><path id="svg_104" fill="#82ba4a" d="M196.55 161.25h18.4v18.24h-18.4Z"/><path id="svg_105" fill="#82ba4a" d="M214.22 179.38h18.4v18.24h-18.4Z"/><path id="svg_108" fill="#82ba4a" d="M14.5 147.28h18.4v19.07H14.5Z"/><path id="svg_109" fill="#1818e2" d="M142.45 90.88h18.4v18.24h-18.4Z"/><path id="svg_111" fill="#c62bc6" d="M178.75 161.23h17.77v18.24h-17.77Z"/><path id="svg_112" fill="#c62bc6" d="M196.06 143.32h18.4v18.24h-18.4Z"/><path id="svg_115" fill="#c62bc6" d="M14.86 76.32h18.4v18.24h-18.4Z"/><use xlink:href="#svg_121" id="svg_133" x="29.7" y="98.98" fill="#fff" stroke-width="20" transform="matrix(.7422 0 0 .69739 81.061 -18.315)"/><use xlink:href="#svg_121" id="svg_134" x="33.81" y="148.37" fill="#fff" stroke-width="20" transform="matrix(.7422 0 0 .69739 81.061 -18.315)"/><use xlink:href="#svg_121" id="svg_135" x="84.65" y="123.27" fill="#fff" stroke-width="20" transform="matrix(.7422 0 0 .69739 81.061 -18.315)"/><use xlink:href="#svg_121" id="svg_136" x="115.81" y="73.89" fill="#fff" stroke-width="20" transform="matrix(.7422 0 0 .69739 81.061 -18.315)"/><use xlink:href="#svg_121" id="svg_137" x="169.94" y="52.13" fill="#fff" stroke-width="20" transform="matrix(.7422 0 0 .69739 81.061 -18.315)"/><use xlink:href="#svg_121" id="svg_138" x="-76.91" y="46.27" fill="#fff" stroke-width="20" transform="matrix(.7422 0 0 .69739 81.061 -18.315)"/></g></g></svg>