<svg width="250" height="250" xmlns="http://www.w3.org/2000/svg" xmlns:xlink="http://www.w3.org/1999/xlink"><defs><symbol id="svg_121" viewBox="0 96 960 960" xmlns="http://www.w3.org/2000/svg"><path d="m385 793-86-182-181-86 181-86 86-182 87 182 179 86-180 86-86 182zm330 103-43-86-85-43 85-43 44-85 42 85 85 43-85 43-43 86z"/></symbol></defs><g class="layer"><g id="svg_139" stroke="#000" stroke-opacity="0"><use fill="#fff" id="svg_122" stroke-width="20" transform="matrix(.7422 0 0 .69739 81.061 -14.565)" x="-1.48" xlink:href="#svg_121" y="48.71"/><path fill="#1818e2" id="svg_3" d="M33.18 41.35h18.4v18.24h-18.4z"/><path fill="#1818e2" id="svg_5" d="M33.17 58.87h18.4v18.24h-18.4z"/><path fill="#1818e2" id="svg_6" d="M50.48 58.79h18.4v18.24h-18.4z"/><path fill="#1818e2" id="svg_8" d="M68.18 76.16h19.89V94.4H68.18z"/><path fill="#1818e2" id="svg_9" d="M50.48 76.16h18.4V94.4h-18.4z"/><path fill="#1818e2" id="svg_13" d="M67.18 93.81H88.2v18.24H67.18z"/><path fill="#1818e2" id="svg_10" d="M66.81 111.18H88.2v18.24H66.81z"/><path fill="#1818e2" id="svg_17" d="M87.99 114.44h18.4v18.24h-18.4z"/><path fill="#1818e2" id="svg_16" d="M106.06 114.44h18.4v18.24h-18.4z"/><path fill="#1818e2" id="svg_15" d="M106.06 129.74h18.4v18.24h-18.4z"/><path fill="#1818e2" id="svg_14" d="M87.99 129.74h18.4v18.24h-18.4z"/><path fill="#1818e2" id="svg_21" d="M123.86 125.67h18.4v18.24h-18.4z"/><path fill="#1818e2" id="svg_20" d="M141.93 125.67h18.4v18.24h-18.4z"/><path fill="#1818e2" id="svg_19" d="M141.93 143.04h18.4v18.24h-18.4z"/><path fill="#1818e2" id="svg_18" d="M124.34 143.04h18.4v18.24h-18.4z"/><path fill="#1818e2" id="svg_22" d="M196.23 73.06h18.4V91.3h-18.4z"/><path fill="#1818e2" id="svg_24" d="M160.06 125.74h18.4v18.24h-18.4z"/><path fill="#1818e2" id="svg_25" d="M142.47 108.41h18.4v18.24h-18.4z"/><path fill="#1818e2" id="svg_26" d="M88.03 147.71h18.4v18.24h-18.4z"/><path fill="#1818e2" id="svg_31" d="M160.03 108.32h18.4v18.24h-18.4z"/><path fill="#1818e2" id="svg_30" d="M178.18 108.23h18.4v18.24h-18.4z"/><path fill="#1818e2" id="svg_28" d="M196.25 125.2h18.4v18.24h-18.4z"/><path fill="#1818e2" id="svg_27" d="M178.18 125.61h18.4v18.24h-18.4z"/><path fill="#1818e2" id="svg_33" d="M178.14 90.83h18.4v18.24h-18.4z"/><path fill="#1818e2" id="svg_35" d="M178.14 73.04h18.4v18.24h-18.4z"/><path fill="#1818e2" id="svg_37" d="M196.19 55.23h18.4v18.24h-18.4z"/><path fill="#1818e2" id="svg_38" d="M213.92 55.23h18.4v18.24h-18.4z"/><path fill="#c62bc6" id="svg_42" d="M33.05 76.37h18.4v18.24h-18.4z"/><path fill="#c62bc6" id="svg_43" d="M48.9 94.16h18.4v18.24H48.9z"/><path fill="#c62bc6" id="svg_44" d="M33.05 94.16h18.4v18.24h-18.4z"/><path fill="#c62bc6" id="svg_45" d="M48.9 111.53h18.4v18.24H48.9z"/><path fill="#c62bc6" id="svg_46" d="M48.9 129.11h18.4v18.24H48.9z"/><path fill="#c62bc6" id="svg_47" d="M69.76 129.11h18.4v18.24h-18.4z"/><path fill="#c62bc6" id="svg_48" d="M57.66 129.11h18.4v18.24h-18.4z"/><path fill="#c62bc6" id="svg_49" d="M33.05 129.11h18.4v18.24h-18.4z"/><path fill="#c62bc6" id="svg_50" d="M106.06 147.72h18.4v18.24h-18.4z"/><path fill="#c62bc6" id="svg_51" d="M196.17 107.39h18.4v18.24h-18.4z"/><path fill="#c62bc6" id="svg_52" d="M214.11 107.39h18.4v18.24h-18.4z"/><path fill="#c62bc6" id="svg_53" d="M178.2 143.17h18.4v18.24h-18.4z"/><path fill="#c62bc6" id="svg_54" d="M213.87 73.06h18.4V91.3h-18.4z"/><path fill="#c62bc6" id="svg_55" d="M69.73 145.04h18.4v18.24h-18.4z"/><path fill="#c62bc6" id="svg_56" d="M69.73 147.72h18.4v18.24h-18.4z"/><path fill="#c62bc6" id="svg_57" d="M141.9 160.96h18.61v18.24H141.9z"/><path fill="#82ba4a" id="svg_58" d="M51.37 147.31h18.4v18.24h-18.4z"/><path fill="#82ba4a" id="svg_60" d="M51.37 163.24h18.4v18.24h-18.4z"/><path fill="#82ba4a" id="svg_61" d="M69.52 165.93h18.4v18.24h-18.4z"/><path fill="#82ba4a" id="svg_62" d="M51.37 165.93h18.4v18.24h-18.4z"/><path fill="#82ba4a" id="svg_63" d="M87.67 165.93h18.4v18.24h-18.4z"/><path fill="#82ba4a" id="svg_64" d="M33.02 166.21h18.4v18.24h-18.4z"/><path fill="#82ba4a" id="svg_65" d="M33.05 183.51h18.4v18.24h-18.4z"/><path fill="#82ba4a" id="svg_66" d="M160.36 143.17h18.4v18.24h-18.4z"/><path fill="#82ba4a" id="svg_67" d="M160.36 160.96h18.4v18.24h-18.4z"/><path fill="#82ba4a" id="svg_68" d="M160.15 178.96h18.4v18.24h-18.4z"/><path fill="#82ba4a" id="svg_69" d="M178.09 178.96h18.4v18.24h-18.4z"/><path fill="#82ba4a" id="svg_70" d="M214.38 125.39h18.4v18.24h-18.4z"/><path fill="#82ba4a" id="svg_71" d="M214.38 143.38h18.4v18.24h-18.4z"/><path fill="#82ba4a" id="svg_72" d="M124.48 161.17h18.4v18.24h-18.4z"/><path fill="#82ba4a" id="svg_73" d="M105.91 165.93h18.4v18.24h-18.4z"/><path fill="#82ba4a" id="svg_76" d="M124.27 160.96h18.4v18.24h-18.4z"/><path fill="#82ba4a" id="svg_75" d="M124.27 178.34h18.4v18.24h-18.4z"/><path fill="#82ba4a" id="svg_74" d="M124.27 196.33h18.4v18.24h-18.4z"/><path fill="#82ba4a" id="svg_77" d="M142 178.96h18.4v18.24H142z"/><path fill="#1818e2" id="svg_79" d="M16.66 41.38h18.4v18.24h-18.4z"/><path fill="#1818e2" id="svg_80" d="M214 38.55h18.4v18.24H214z"/><path fill="#82ba4a" id="svg_88" d="M52.04 181.22h18.4v18.24h-18.4z"/><path fill="#82ba4a" id="svg_86" d="M52.04 183.91h18.4v18.24h-18.4z"/><path fill="#82ba4a" id="svg_85" d="M88.33 183.91h18.4v18.24h-18.4z"/><path fill="#82ba4a" id="svg_84" d="M33.68 183.91h18.4v18.24h-18.4z"/><path fill="#82ba4a" id="svg_83" d="M33.09 201.7h18.4v18.24h-18.4z"/><path fill="#82ba4a" id="svg_97" d="M214.31 161.38h18.4v18.24h-18.4z"/><path fill="#1818e2" id="svg_102" d="M195.3 89.27h18.4v18.24h-18.4z"/><path fill="#82ba4a" id="svg_103" d="M178.19 197.03h18.4v18.24h-18.4z"/><path fill="#82ba4a" id="svg_104" d="M196.55 161.25h18.4v18.24h-18.4z"/><path fill="#82ba4a" id="svg_105" d="M214.22 179.38h18.4v18.24h-18.4z"/><path fill="#82ba4a" id="svg_108" d="M14.5 147.28h18.4v19.07H14.5z"/><path fill="#1818e2" id="svg_109" d="M142.45 90.88h18.4v18.24h-18.4z"/><path fill="#c62bc6" id="svg_111" d="M178.75 161.23h17.77v18.24h-17.77z"/><path fill="#c62bc6" id="svg_112" d="M196.06 143.32h18.4v18.24h-18.4z"/><path fill="#c62bc6" id="svg_115" d="M14.86 76.32h18.4v18.24h-18.4z"/><use fill="#fff" id="svg_133" stroke-width="20" transform="matrix(.7422 0 0 .69739 81.061 -18.315)" x="29.7" xlink:href="#svg_121" y="98.98"/><use fill="#fff" id="svg_134" stroke-width="20" transform="matrix(.7422 0 0 .69739 81.061 -18.315)" x="33.81" xlink:href="#svg_121" y="148.37"/><use fill="#fff" id="svg_135" stroke-width="20" transform="matrix(.7422 0 0 .69739 81.061 -18.315)" x="84.65" xlink:href="#svg_121" y="123.27"/><use fill="#fff" id="svg_136" stroke-width="20" transform="matrix(.7422 0 0 .69739 81.061 -18.315)" x="115.81" xlink:href="#svg_121" y="73.89"/><use fill="#fff" id="svg_137" stroke-width="20" transform="matrix(.7422 0 0 .69739 81.061 -18.315)" x="169.94" xlink:href="#svg_121" y="52.13"/><use fill="#fff" id="svg_138" stroke-width="20" transform="matrix(.7422 0 0 .69739 81.061 -18.315)" x="-76.91" xlink:href="#svg_121" y="46.27"/></g></g></svg>