<svg xmlns="http://www.w3.org/2000/svg" height="40" viewBox="0 96 960 960" width="40"><path d="M541.743 696.512q14.526 0 25.365-10.763 10.84-10.763 10.84-25.313 0-14.551-10.84-25.314-10.839-10.763-25.365-10.763-14.526 0-25.366 10.763-10.839 10.763-10.839 25.314 0 14.55 10.839 25.313 10.84 10.763 25.366 10.763Zm-21.538-119.23h41.589q1.333-27.333 7.987-40.654 6.654-13.32 31.705-37.192 26.205-24.641 36.41-43.316 10.205-18.675 10.205-43.402 0-43.167-30.153-71.198-30.154-28.032-77.692-28.032-35.667 0-63.654 19.218-27.987 19.217-41.577 53.345l38.769 16.667q11.231-24.231 27.47-36.551 16.24-12.321 38.992-12.321 29.134 0 47.823 16.923 18.69 16.923 18.69 43.334 0 17.872-9.115 32.551-9.116 14.68-31.757 32.988-28.743 25.538-37.218 43.41-8.474 17.872-8.474 54.23ZM293.077 815.486q-25.788 0-44.176-18.388-18.388-18.387-18.388-44.176V258.565q0-25.788 18.388-44.176t44.176-18.388h494.357q25.789 0 44.176 18.388 18.388 18.388 18.388 44.176v494.357q0 25.789-18.388 44.176-18.387 18.388-44.176 18.388H293.077Zm0-50.255h494.357q4.616 0 8.462-3.847 3.847-3.846 3.847-8.462V258.565q0-4.616-3.847-8.462-3.846-3.847-8.462-3.847H293.077q-4.616 0-8.462 3.847-3.847 3.846-3.847 8.462v494.357q0 4.616 3.847 8.462 3.846 3.847 8.462 3.847ZM172.566 935.997q-25.789 0-44.176-18.388-18.388-18.387-18.388-44.175V328.821h50.255v544.613q0 4.615 3.847 8.462 3.846 3.846 8.462 3.846h544.612v50.255H172.566Zm108.202-689.741v518.975-518.975Z"/></svg>