<svg xmlns="http://www.w3.org/2000/svg" xmlns:xlink="http://www.w3.org/1999/xlink" shape-rendering="crispEdges" width="500" height="500">
 <defs>
  <symbol height="20" id="svg_121" viewBox="0 96 960 960" width="20">
   <path d="m385,793l-86,-182l-181,-86l181,-86l86,-182l87,182l179,86l-180,86l-86,182zm330,103l-43,-86l-85,-43l85,-43l44,-85l42,85l85,43l-85,43l-43,86z" />
  </symbol>
 </defs>
 <g class="layer">
  <g id="svg_127">
   <rect fill="#1818e2" height="40" id="svg_3" width="40" x="80" y="80" />
   <rect fill="#1818e2" height="40" id="svg_5" width="40" x="80" y="120" />
   <rect fill="#1818e2" height="40" id="svg_6" width="40" x="80" y="120" />
   <rect fill="#1818e2" height="40" id="svg_8" width="40" x="120" y="160" />
   <rect fill="#1818e2" height="40" id="svg_9" width="40" x="80" y="160" />
   <rect fill="#1818e2" height="40" id="svg_13" width="40" x="120" y="160" />
   <rect fill="#1818e2" height="40" id="svg_10" width="40" x="120" y="200" />
   <rect fill="#1818e2" height="40" id="svg_17" width="40" x="160" y="240" />
   <rect fill="#1818e2" height="40" id="svg_16" width="40" x="200" y="240" />
   <rect fill="#1818e2" height="40" id="svg_15" width="40" x="200" y="240" />
   <rect fill="#1818e2" height="40" id="svg_14" width="40" x="160" y="240" />
   <rect fill="#1818e2" height="40" id="svg_21" width="40" x="240" y="240" />
   <rect fill="#1818e2" height="40" id="svg_20" width="40" x="280" y="240" />
   <rect fill="#1818e2" height="40" id="svg_19" width="40" x="280" y="280" />
   <rect fill="#1818e2" height="40" id="svg_18" width="40" x="240" y="280" />
   <rect fill="#1818e2" height="40" id="svg_22" width="40" x="400" y="120" />
   <rect fill="#1818e2" height="40" id="svg_24" width="40" x="320" y="240" />
   <rect fill="#1818e2" height="40" id="svg_25" width="40" x="280" y="200" />
   <rect fill="#1818e2" height="40" id="svg_26" width="40" x="160" y="280" />
   <rect fill="#1818e2" height="40" id="svg_31" width="40" x="320" y="200" />
   <rect fill="#1818e2" height="40" id="svg_30" width="40" x="360" y="200" />
   <rect fill="#1818e2" height="40" id="svg_28" width="40" x="400" y="240" />
   <rect fill="#1818e2" height="40" id="svg_27" width="40" x="360" y="240" />
   <rect fill="#1818e2" height="40" id="svg_33" width="40" x="360" y="160" />
   <rect fill="#1818e2" height="40" id="svg_35" width="40" x="360" y="120" />
   <rect fill="#1818e2" height="40" id="svg_37" width="40" x="400" y="80" />
   <rect fill="#1818e2" height="40" id="svg_38" width="40" x="440" y="80" />
   <rect fill="#1818e2" id="svg_41" x="200" y="320" width="40" height="40" />
   <rect fill="#c62bc6" height="40" id="svg_42" width="40" x="80" y="160" />
   <rect fill="#c62bc6" height="40" id="svg_43" width="40" x="80" y="160" />
   <rect fill="#c62bc6" height="40" id="svg_44" width="40" x="80" y="160" />
   <rect fill="#c62bc6" height="40" id="svg_45" width="40" x="80" y="200" />
   <rect fill="#c62bc6" height="40" id="svg_46" width="40" x="80" y="240" />
   <rect fill="#c62bc6" height="40" id="svg_47" width="40" x="120" y="240" />
   <rect fill="#c62bc6" height="40" id="svg_48" width="40" x="120" y="240" />
   <rect fill="#c62bc6" height="40" id="svg_49" width="40" x="80" y="240" />
   <rect fill="#c62bc6" height="40" id="svg_50" width="40" x="200" y="280" />
   <rect fill="#c62bc6" height="40" id="svg_51" width="40" x="400" y="200" />
   <rect fill="#c62bc6" height="40" id="svg_52" width="40" x="440" y="200" />
   <rect fill="#c62bc6" height="40" id="svg_53" width="40" x="360" y="280" />
   <rect fill="#c62bc6" height="40" id="svg_54" width="40" x="440" y="120" />
   <rect fill="#c62bc6" height="40" id="svg_55" width="40" x="120" y="280" />
   <rect fill="#c62bc6" height="40" id="svg_56" width="40" x="120" y="280" />
   <rect fill="#c62bc6" height="40" id="svg_57" width="40" x="280" y="320" />
   <rect fill="#82ba4a" height="40" id="svg_58" width="40" x="80" y="280" />
   <rect fill="#82ba4a" id="svg_59" x="80" y="360" width="40" height="40" />
   <rect fill="#82ba4a" height="40" id="svg_60" width="40" x="80" y="320" />
   <rect fill="#82ba4a" height="40" id="svg_61" width="40" x="120" y="320" />
   <rect fill="#82ba4a" height="40" id="svg_62" width="40" x="80" y="320" />
   <rect fill="#82ba4a" height="40" id="svg_63" width="40" x="160" y="320" />
   <rect fill="#82ba4a" height="40" id="svg_64" width="40" x="80" y="320" />
   <rect fill="#82ba4a" height="40" id="svg_65" width="40" x="80" y="360" />
   <rect fill="#82ba4a" height="40" id="svg_66" width="40" x="320" y="280" />
   <rect fill="#82ba4a" height="40" id="svg_67" width="40" x="320" y="320" />
   <rect fill="#82ba4a" height="40" id="svg_68" width="40" x="320" y="360" />
   <rect fill="#82ba4a" height="40" id="svg_69" width="40" x="360" y="360" />
   <rect fill="#82ba4a" height="40" id="svg_70" width="40" x="440" y="240" />
   <rect fill="#82ba4a" height="40" id="svg_71" width="40" x="440" y="280" />
   <rect fill="#82ba4a" height="40" id="svg_72" width="40" x="240" y="320" />
   <rect fill="#82ba4a" height="40" id="svg_73" width="40" x="200" y="320" />
   <rect fill="#82ba4a" height="40" id="svg_76" width="40" x="240" y="320" />
   <rect fill="#82ba4a" height="40" id="svg_75" width="40" x="240" y="360" />
   <rect fill="#82ba4a" height="40" id="svg_74" width="40" x="240" y="400" />
   <rect fill="#82ba4a" height="40" id="svg_77" width="40" x="280" y="360" />
   <rect fill="#1818e2" height="40" id="svg_79" width="40" x="40" y="80" />
   <rect fill="#1818e2" height="40" id="svg_80" width="40" x="440" y="80" />
   <rect fill="#82ba4a" id="svg_89" x="80" y="400" width="40" height="40" />
   <rect fill="#82ba4a" height="40" id="svg_88" width="40" x="120" y="360" />
   <rect fill="#82ba4a" height="40" id="svg_86" width="40" x="120" y="360" />
   <rect fill="#82ba4a" height="40" id="svg_85" width="40" x="160" y="360" />
   <rect fill="#82ba4a" height="40" id="svg_84" width="40" x="80" y="360" />
   <rect fill="#82ba4a" height="40" id="svg_83" width="40" x="80" y="400" />
   <rect fill="#82ba4a" height="40" id="svg_97" width="40" x="440" y="320" />
   <rect fill="#1818e2" height="40" id="svg_102" width="40" x="400" y="160" />
   <rect fill="#82ba4a" height="40" id="svg_103" width="40" x="360" y="400" />
   <rect fill="#82ba4a" height="40" id="svg_104" width="40" x="400" y="320" />
   <rect fill="#82ba4a" height="40" id="svg_105" width="40" x="440" y="360" />
   <rect fill="#82ba4a" height="40" id="svg_108" width="40" x="40" y="280" />
   <rect fill="#1818e2" height="40" id="svg_109" width="40" x="280" y="160" />
   <rect fill="#c62bc6" height="40" id="svg_111" width="40" x="360" y="320" />
   <rect fill="#c62bc6" height="40" id="svg_112" width="40" x="400" y="280" />
   <rect fill="#c62bc6" height="40" id="svg_115" width="40" x="40" y="160" />
  </g>
  <use xlink:href="#svg_121" id="svg_122" x="131.48" y="57.68" width="40" height="40" fill="#ffffff"/>
  <use xlink:href="#svg_121" id="svg_133" x="170.7" y="102.56" width="40" height="40" fill="#ffffff"/>
  <use xlink:href="#svg_121" id="svg_134" x="190.81" y="151.96" width="40" height="40" fill="#ffffff"/>
  <use xlink:href="#svg_121" id="svg_135" x="254.65" y="116.85" width="40" height="40" fill="#ffffff"/>
  <use xlink:href="#svg_121" id="svg_136" x="305.81" y="77.47" width="40" height="40" fill="#ffffff"/>
  <use xlink:href="#svg_121" id="svg_137" x="349.94" y="55.71" width="40" height="40" fill="#ffffff"/>
  <use xlink:href="#svg_121" id="svg_138" x="246.91" y="49.85" width="40" height="40" fill="#ffffff"/>
</g>
</svg>
