<?xml version="1.0"?>
<svg width="500" height="500" xmlns="http://www.w3.org/2000/svg" xmlns:svg="http://www.w3.org/2000/svg" xmlns:xlink="http://www.w3.org/1999/xlink">
 <defs>
  <symbol height="20" id="svg_121" viewBox="0 96 960 960" width="20" xmlns="http://www.w3.org/2000/svg">
   <path d="m385,793l-86,-182l-181,-86l181,-86l86,-182l87,182l179,86l-180,86l-86,182zm330,103l-43,-86l-85,-43l85,-43l44,-85l42,85l85,43l-85,43l-43,86z"/>
  </symbol>
 </defs>
 <g class="layer">
  <use fill="#ffffff" id="svg_122" stroke="#000000" stroke-opacity="0" stroke-width="20" transform="matrix(1.52423 0 0 1.49356 159.946 -66.9279)" x="-1.48" xlink:href="#svg_121" y="57.68"/>
  <g id="svg_127">
   <rect fill="#1818e2" height="39.07" id="svg_3" stroke="#000000" stroke-opacity="0" width="37.78" x="61.61" y="66.21"/>
   <rect fill="#1818e2" height="39.07" id="svg_5" stroke="#000000" stroke-opacity="0" width="37.78" x="61.59" y="103.73"/>
   <rect fill="#1818e2" height="39.07" id="svg_6" stroke="#000000" stroke-opacity="0" width="37.78" x="97.15" y="103.55"/>
   <rect fill="#1818e2" height="39.07" id="svg_8" stroke="#000000" stroke-opacity="0" width="40.86" x="133.49" y="140.76"/>
   <rect fill="#1818e2" height="39.07" id="svg_9" stroke="#000000" stroke-opacity="0" width="37.78" x="97.15" y="140.76"/>
   <rect fill="#1818e2" height="39.07" id="svg_13" stroke="#000000" stroke-opacity="0" width="43.16" x="131.45" y="178.55"/>
   <rect fill="#1818e2" height="39.07" id="svg_10" stroke="#000000" stroke-opacity="0" width="43.93" x="130.68" y="215.76"/>
   <rect fill="#1818e2" height="39.07" id="svg_17" stroke="#000000" stroke-opacity="0" width="37.78" x="174.18" y="222.74"/>
   <rect fill="#1818e2" height="39.07" id="svg_16" stroke="#000000" stroke-opacity="0" width="37.78" x="211.29" y="222.74"/>
   <rect fill="#1818e2" height="39.07" id="svg_15" stroke="#000000" stroke-opacity="0" width="37.78" x="211.29" y="255.52"/>
   <rect fill="#1818e2" height="39.07" id="svg_14" stroke="#000000" stroke-opacity="0" width="37.78" x="174.18" y="255.52"/>
   <rect fill="#1818e2" height="39.07" id="svg_21" stroke="#000000" stroke-opacity="0" width="37.78" x="247.83" y="246.8"/>
   <rect fill="#1818e2" height="39.07" id="svg_20" stroke="#000000" stroke-opacity="0" width="37.78" x="284.94" y="246.8"/>
   <rect fill="#1818e2" height="39.07" id="svg_19" stroke="#000000" stroke-opacity="0" width="37.78" x="284.94" y="284"/>
   <rect fill="#1818e2" height="39.07" id="svg_18" stroke="#000000" stroke-opacity="0" width="37.78" x="248.82" y="284"/>
   <rect fill="#1818e2" height="39.07" id="svg_22" stroke="#000000" stroke-opacity="0" width="37.78" x="396.47" y="134.12"/>
   <rect fill="#1818e2" height="39.07" id="svg_24" stroke="#000000" stroke-opacity="0" width="37.78" x="322.18" y="246.93"/>
   <rect fill="#1818e2" height="39.07" id="svg_25" stroke="#000000" stroke-opacity="0" width="37.78" x="286.07" y="209.83"/>
   <rect fill="#1818e2" height="39.07" id="svg_26" stroke="#000000" stroke-opacity="0" width="37.78" x="174.26" y="293.99"/>
   <rect fill="#1818e2" height="39.07" id="svg_31" stroke="#000000" stroke-opacity="0" width="37.78" x="322.13" y="209.63"/>
   <rect fill="#1818e2" height="39.07" id="svg_30" stroke="#000000" stroke-opacity="0" width="37.78" x="359.4" y="209.45"/>
   <rect fill="#1818e2" height="39.07" id="svg_28" stroke="#000000" stroke-opacity="0" width="37.78" x="396.51" y="245.78"/>
   <rect fill="#1818e2" height="39.07" id="svg_27" stroke="#000000" stroke-opacity="0" width="37.78" x="359.4" y="246.66"/>
   <rect fill="#1818e2" height="39.07" id="svg_33" stroke="#000000" stroke-opacity="0" width="37.78" x="359.32" y="172.18"/>
   <rect fill="#1818e2" height="39.07" id="svg_35" stroke="#000000" stroke-opacity="0" width="37.78" x="359.32" y="134.08"/>
   <rect fill="#1818e2" height="39.07" id="svg_37" stroke="#000000" stroke-opacity="0" width="37.78" x="396.38" y="95.94"/>
   <rect fill="#1818e2" height="39.07" id="svg_38" stroke="#000000" stroke-opacity="0" width="37.78" x="432.79" y="95.94"/>
   <rect fill="#1818e2" id="svg_41" stroke="#000000" stroke-opacity="0" x="189.66" y="314.61"/>
   <rect fill="#c62bc6" height="39.07" id="svg_42" stroke="#000000" stroke-opacity="0" width="37.78" x="61.34" y="141.2"/>
   <rect fill="#c62bc6" height="39.07" id="svg_43" stroke="#000000" stroke-opacity="0" width="37.78" x="93.9" y="179.3"/>
   <rect fill="#c62bc6" height="39.07" id="svg_44" stroke="#000000" stroke-opacity="0" width="37.78" x="61.34" y="179.3"/>
   <rect fill="#c62bc6" height="39.07" id="svg_45" stroke="#000000" stroke-opacity="0" width="37.78" x="93.9" y="216.51"/>
   <rect fill="#c62bc6" height="39.07" id="svg_46" stroke="#000000" stroke-opacity="0" width="37.78" x="93.9" y="254.16"/>
   <rect fill="#c62bc6" height="39.07" id="svg_47" stroke="#000000" stroke-opacity="0" width="37.78" x="136.74" y="254.16"/>
   <rect fill="#c62bc6" height="39.07" id="svg_48" stroke="#000000" stroke-opacity="0" width="37.78" x="111.89" y="254.16"/>
   <rect fill="#c62bc6" height="39.07" id="svg_49" stroke="#000000" stroke-opacity="0" width="37.78" x="61.34" y="254.16"/>
   <rect fill="#c62bc6" height="39.07" id="svg_50" stroke="#000000" stroke-opacity="0" width="37.78" x="211.28" y="294.03"/>
   <rect fill="#c62bc6" height="39.07" id="svg_51" stroke="#000000" stroke-opacity="0" width="37.78" x="396.35" y="207.65"/>
   <rect fill="#c62bc6" height="39.07" id="svg_52" stroke="#000000" stroke-opacity="0" width="37.78" x="433.19" y="207.65"/>
   <rect fill="#c62bc6" height="39.07" id="svg_53" stroke="#000000" stroke-opacity="0" width="37.78" x="359.44" y="284.28"/>
   <rect fill="#c62bc6" height="39.07" id="svg_54" stroke="#000000" stroke-opacity="0" width="37.78" x="432.69" y="134.12"/>
   <rect fill="#c62bc6" height="39.07" id="svg_55" stroke="#000000" stroke-opacity="0" width="37.78" x="136.68" y="288.27"/>
   <rect fill="#c62bc6" height="39.07" id="svg_56" stroke="#000000" stroke-opacity="0" width="37.78" x="136.68" y="294.03"/>
   <rect fill="#c62bc6" height="39.07" id="svg_57" stroke="#000000" stroke-opacity="0" width="38.21" x="284.9" y="322.38"/>
   <rect fill="#82ba4a" height="39.07" id="svg_58" stroke="#000000" stroke-opacity="0" width="37.78" x="98.98" y="293.14"/>
   <rect fill="#82ba4a" id="svg_59" stroke="#000000" stroke-opacity="0" x="97.06" y="362.89"/>
   <rect fill="#82ba4a" height="39.07" id="svg_60" stroke="#000000" stroke-opacity="0" width="37.78" x="98.98" y="327.25"/>
   <rect fill="#82ba4a" height="39.07" id="svg_61" stroke="#000000" stroke-opacity="0" width="37.78" x="136.25" y="333.01"/>
   <rect fill="#82ba4a" height="39.07" id="svg_62" stroke="#000000" stroke-opacity="0" width="37.78" x="98.98" y="333.01"/>
   <rect fill="#82ba4a" height="39.07" id="svg_63" stroke="#000000" stroke-opacity="0" width="37.78" x="173.52" y="333.01"/>
   <rect fill="#82ba4a" height="39.07" id="svg_64" stroke="#000000" stroke-opacity="0" width="37.78" x="61.28" y="333.62"/>
   <rect fill="#82ba4a" height="39.07" id="svg_65" stroke="#000000" stroke-opacity="0" width="37.78" x="61.34" y="370.66"/>
   <rect fill="#82ba4a" height="39.07" id="svg_66" stroke="#000000" stroke-opacity="0" width="37.78" x="322.79" y="284.28"/>
   <rect fill="#82ba4a" height="39.07" id="svg_67" stroke="#000000" stroke-opacity="0" width="37.78" x="322.79" y="322.38"/>
   <rect fill="#82ba4a" height="39.07" id="svg_68" stroke="#000000" stroke-opacity="0" width="37.78" x="322.37" y="360.92"/>
   <rect fill="#82ba4a" height="39.07" id="svg_69" stroke="#000000" stroke-opacity="0" width="37.78" x="359.21" y="360.92"/>
   <rect fill="#82ba4a" height="39.07" id="svg_70" stroke="#000000" stroke-opacity="0" width="37.78" x="433.75" y="246.19"/>
   <rect fill="#82ba4a" height="39.07" id="svg_71" stroke="#000000" stroke-opacity="0" width="37.78" x="433.75" y="284.73"/>
   <rect fill="#82ba4a" height="39.07" id="svg_72" stroke="#000000" stroke-opacity="0" width="37.78" x="249.11" y="322.82"/>
   <rect fill="#82ba4a" height="39.07" id="svg_73" stroke="#000000" stroke-opacity="0" width="37.78" x="210.98" y="333.01"/>
   <rect fill="#82ba4a" height="39.07" id="svg_76" stroke="#000000" stroke-opacity="0" width="37.78" x="248.68" y="322.38"/>
   <rect fill="#82ba4a" height="39.07" id="svg_75" stroke="#000000" stroke-opacity="0" width="37.78" x="248.68" y="359.59"/>
   <rect fill="#82ba4a" height="39.07" id="svg_74" stroke="#000000" stroke-opacity="0" width="37.78" x="248.68" y="398.12"/>
   <rect fill="#82ba4a" height="39.07" id="svg_77" stroke="#000000" stroke-opacity="0" width="37.78" x="285.1" y="360.92"/>
   <rect fill="#1818e2" height="39.07" id="svg_79" stroke="#000000" stroke-opacity="0" width="37.78" x="27.68" y="66.28"/>
   <rect fill="#1818e2" height="39.07" id="svg_80" stroke="#000000" stroke-opacity="0" width="37.78" x="432.96" y="60.21"/>
   <rect fill="#82ba4a" id="svg_89" stroke="#000000" stroke-opacity="0" x="98.43" y="401.41"/>
   <rect fill="#82ba4a" height="39.07" id="svg_88" stroke="#000000" stroke-opacity="0" width="37.78" x="100.34" y="365.77"/>
   <rect fill="#82ba4a" height="39.07" id="svg_86" stroke="#000000" stroke-opacity="0" width="37.78" x="100.34" y="371.53"/>
   <rect fill="#82ba4a" height="39.07" id="svg_85" stroke="#000000" stroke-opacity="0" width="37.78" x="174.88" y="371.53"/>
   <rect fill="#82ba4a" height="39.07" id="svg_84" stroke="#000000" stroke-opacity="0" width="37.78" x="62.64" y="371.53"/>
   <rect fill="#82ba4a" height="39.07" id="svg_83" stroke="#000000" stroke-opacity="0" width="37.78" x="61.42" y="409.62"/>
   <rect fill="#82ba4a" height="39.07" id="svg_97" stroke="#000000" stroke-opacity="0" width="37.78" x="433.6" y="323.26"/>
   <rect fill="#1818e2" height="39.07" id="svg_102" stroke="#000000" stroke-opacity="0" width="37.78" x="394.55" y="168.84"/>
   <rect fill="#82ba4a" height="39.07" id="svg_103" stroke="#000000" stroke-opacity="0" width="37.78" x="359.42" y="399.62"/>
   <rect fill="#82ba4a" height="39.07" id="svg_104" stroke="#000000" stroke-opacity="0" width="37.78" x="397.12" y="322.99"/>
   <rect fill="#82ba4a" height="39.07" id="svg_105" stroke="#000000" stroke-opacity="0" width="37.78" x="433.41" y="361.83"/>
   <rect fill="#82ba4a" height="40.84" id="svg_108" stroke="#000000" stroke-opacity="0" width="37.78" x="23.25" y="293.07"/>
   <rect fill="#1818e2" height="39.07" id="svg_109" stroke="#000000" stroke-opacity="0" width="37.78" x="286.02" y="172.28"/>
   <rect fill="#c62bc6" height="39.07" id="svg_111" stroke="#000000" stroke-opacity="0" width="36.5" x="360.56" y="322.96"/>
   <rect fill="#c62bc6" height="39.07" id="svg_112" stroke="#000000" stroke-opacity="0" width="37.78" x="396.12" y="284.59"/>
   <rect fill="#c62bc6" height="39.07" id="svg_115" stroke="#000000" stroke-opacity="0" width="37.78" x="23.99" y="141.1"/>
  </g>
  <use fill="#ffffff" id="svg_133" stroke="#000000" stroke-opacity="0" stroke-width="20" transform="matrix(1.52423 0 0 1.49356 159.946 -66.9279)" x="29.7" xlink:href="#svg_121" y="102.56"/>
  <use fill="#ffffff" id="svg_134" stroke="#000000" stroke-opacity="0" stroke-width="20" transform="matrix(1.52423 0 0 1.49356 159.946 -66.9279)" x="33.81" xlink:href="#svg_121" y="151.96"/>
  <use fill="#ffffff" id="svg_135" stroke="#000000" stroke-opacity="0" stroke-width="20" transform="matrix(1.52423 0 0 1.49356 159.946 -66.9279)" x="84.65" xlink:href="#svg_121" y="126.85"/>
  <use fill="#ffffff" id="svg_136" stroke="#000000" stroke-opacity="0" stroke-width="20" transform="matrix(1.52423 0 0 1.49356 159.946 -66.9279)" x="115.81" xlink:href="#svg_121" y="77.47"/>
  <use fill="#ffffff" id="svg_137" stroke="#000000" stroke-opacity="0" stroke-width="20" transform="matrix(1.52423 0 0 1.49356 159.946 -66.9279)" x="169.94" xlink:href="#svg_121" y="55.71"/>
  <use fill="#ffffff" id="svg_138" stroke="#000000" stroke-opacity="0" stroke-width="20" transform="matrix(1.52423 0 0 1.49356 159.946 -66.9279)" x="-76.91" xlink:href="#svg_121" y="49.85"/>
 </g>
</svg>
